HIERARCHY
ROOT Hips
{
	OFFSET 0.00000 0.00000 0.00000
	CHANNELS 6 Xposition Yposition Zposition Zrotation Yrotation Xrotation 
	JOINT LHipJoint
	{
		OFFSET 0 0 0
		CHANNELS 3 Zrotation Yrotation Xrotation
		JOINT LeftHip
		{
			OFFSET 1.37959 -1.78713 0.86582
			CHANNELS 3 Zrotation Yrotation Xrotation
			JOINT LeftKnee
			{
				OFFSET 2.54611 -6.99539 0.00000
				CHANNELS 3 Zrotation Yrotation Xrotation
				JOINT LeftAnkle
				{
					OFFSET 2.59951 -7.14211 0.00000
					CHANNELS 3 Zrotation Yrotation Xrotation
					JOINT LeftToe
					{
						OFFSET 0.18493 -0.50810 1.96120
						CHANNELS 3 Zrotation Yrotation Xrotation
						End Site
						{
							OFFSET 0.00000 -0.00000 1.02054
						}
					}
				}
			}
		}
	}
	JOINT RHipJoint
	{
		OFFSET 0 0 0
		CHANNELS 3 Zrotation Yrotation Xrotation
		JOINT RightHip
		{
			OFFSET -1.33564 -1.78713 0.86582
			CHANNELS 3 Zrotation Yrotation Xrotation
			JOINT RightKnee
			{
				OFFSET -2.52705 -6.94302 0.00000
				CHANNELS 3 Zrotation Yrotation Xrotation
				JOINT RightAnkle
				{
					OFFSET -2.55964 -7.03257 0.00000
					CHANNELS 3 Zrotation Yrotation Xrotation
					JOINT RightToe
					{
						OFFSET -0.25804 -0.70896 2.12109
						CHANNELS 3 Zrotation Yrotation Xrotation
						End Site
						{
							OFFSET -0.00000 -0.00000 1.11821
						}
					}
				}
			}
		}
	}
	JOINT lowerback
	{
		OFFSET 0 0 0
		CHANNELS 3 Zrotation Yrotation Xrotation
		JOINT Chest
		{
			OFFSET -0.02031 2.24248 -0.18900
			CHANNELS 3 Zrotation Yrotation Xrotation
			JOINT Chest2
			{
				OFFSET 0.08342 2.24689 -0.03799
				CHANNELS 3 Zrotation Yrotation Xrotation
				JOINT lowerneck
				{
					OFFSET 0 0 0
					CHANNELS 3 Zrotation Yrotation Xrotation
					JOINT Neck
					{
						OFFSET -0.11607 1.55844 0.24628
						CHANNELS 3 Zrotation Yrotation Xrotation
						JOINT Head
						{
							OFFSET 0.06877 1.60174 -0.17013
							CHANNELS 3 Zrotation Yrotation Xrotation
							End Site
							{
								OFFSET 0.03358 1.61266 -0.08543
							}
						}
					}
				}
				JOINT LeftCollar
				{
					OFFSET 0 0 0
					CHANNELS 3 Zrotation Yrotation Xrotation
					JOINT LeftShoulder
					{
						OFFSET 3.47537 0.55866 -0.72348
CHANNELS 3 Zrotation Xrotation Yrotation
						JOINT LeftElbow
						{
OFFSET 0 -5.381540 0.000000
CHANNELS 3 Zrotation Xrotation Yrotation
							JOINT LeftWrist
							{
OFFSET 0 -3.333120 0.000000
CHANNELS 3 Zrotation Xrotation Yrotation
								JOINT lhand
								{
									OFFSET 0 0 0
CHANNELS 3 Zrotation Xrotation Yrotation
									JOINT LFingers
									{
OFFSET 0 -0.710790 0.000000
CHANNELS 3 Zrotation Xrotation Yrotation
										End Site
										{
OFFSET 0 -0.573060 0.000000
										}
									}
								}
								JOINT LThumb
								{
OFFSET 0 0.000000 0.000000
CHANNELS 3 Zrotation Xrotation Yrotation
									End Site
									{
OFFSET 0 -0.581810 0.581810
									}
								}
							}
						}
					}
				}
				JOINT RightCollar
				{
					OFFSET 0 0 0
					CHANNELS 3 Zrotation Yrotation Xrotation
					JOINT RightShoulder
					{
						OFFSET -3.27844 0.90739 -0.35708
CHANNELS 3 Zrotation Xrotation Yrotation
						JOINT RightElbow
						{
OFFSET 0 -5.169540 0.000000
CHANNELS 3 Zrotation Xrotation Yrotation
							JOINT RightWrist
							{
OFFSET 0 -3.382870 0.000000
CHANNELS 3 Zrotation Xrotation Yrotation
								JOINT rhand
								{
									OFFSET 0 0 0
CHANNELS 3 Zrotation Xrotation Yrotation
									JOINT RFingers
									{
OFFSET 0 -0.817970 0.000000
CHANNELS 3 Zrotation Xrotation Yrotation
										End Site
										{
OFFSET 0 -0.659470 0.000000
										}
									}
								}
								JOINT RThumb
								{
OFFSET 0 0.000000 0.000000
CHANNELS 3 Zrotation Xrotation Yrotation
									End Site
									{
OFFSET 0 -0.669530 0.669530
									}
								}
							}
						}
					}
				}
			}
		}
	}
}
MOTION
Frames: 7
Frame Time: 0.008333333333333333
8.009956 15.655001 14.665978 227.789888 -75.051308 -220.676130 0.000000 0.000000 0.000000 2.254213 6.160544 -49.870955 15.968739 19.605394 78.138336 0.741117 -20.436957 -19.802886 0.412776 -4.123951 -11.425637 0.000000 0.000000 0.000000 5.181698 -1.198781 -20.995380 -5.215769 -13.620745 41.742810 -1.098493 2.432261 -19.148341 -4.325825 12.581326 -37.821530 3.030002 -0.593095 21.602395 4.191514 -0.408803 6.015367 2.923213 -0.467226 -5.475968 -15.921224 -20.047006 2.797497 25.887151 -28.241260 -2.686829 7.995061 -14.339309 4.883658 0.000000 0.000000 0.000000 17.388982 10.804188 13.691507 17.380453 -27.356573 4.260698 6.327021 8.346513 -34.870368 0.000000 0.000000 0.000000 -7.125000 0.000000 0.000000 -32.144620 62.101171 14.152603 0.000000 0.000000 0.000000 -67.488008 3.795933 -43.585047 -15.693339 -25.102625 -3.515093 -3.155238 -41.989214 3.903273 0.000000 0.000000 0.000000 7.125000 0.000000 0.000000 18.971130 33.402739 5.664651
7.979279 15.672502 14.702587 228.348962 -74.957523 -221.161618 0.000000 0.000000 0.000000 2.225066 6.187833 -49.470706 15.790416 19.569653 77.606583 0.795303 -20.633181 -20.258737 0.396347 -4.041946 -11.194830 0.000000 0.000000 0.000000 5.289055 -0.972750 -20.407778 -4.996535 -13.379775 40.807533 -1.062570 2.125106 -18.889025 -4.235422 12.467070 -37.405254 2.971992 -0.627487 21.417732 4.234039 -0.461928 5.950875 3.012290 -0.489379 -5.448875 -15.993858 -19.985324 2.603694 25.762352 -28.217702 -2.243614 7.936319 -14.289577 5.030980 0.000000 0.000000 0.000000 17.096075 10.940862 12.885142 17.430314 -27.421579 4.283661 5.795921 7.635803 -35.172374 0.000000 0.000000 0.000000 -7.125000 0.000000 0.000000 -33.013849 62.217634 14.670241 0.000000 0.000000 0.000000 -67.201248 3.927152 -42.122138 -15.904757 -25.391293 -3.604983 -4.818561 -43.139669 3.850737 0.000000 0.000000 0.000000 7.125000 0.000000 0.000000 17.658238 33.429927 5.222364
7.949198 15.695703 14.742245 228.981603 -75.033871 -221.716696 0.000000 0.000000 0.000000 2.049977 6.022389 -49.072844 15.589361 19.526555 77.005372 0.812771 -20.926435 -20.514829 0.335578 -3.715644 -10.278917 0.000000 0.000000 0.000000 5.280692 -0.883317 -19.754364 -4.756158 -13.101291 39.753289 -1.020416 1.802243 -18.573042 -4.005837 12.165251 -36.323357 2.879187 -0.696012 21.286820 4.259399 -0.555880 5.828259 3.115617 -0.528565 -5.510925 -16.020297 -19.963606 2.580291 25.586454 -28.235103 -1.909690 7.873932 -14.276695 5.110634 0.000000 0.000000 0.000000 16.731059 11.094504 12.102636 17.500390 -27.512698 4.316035 5.052601 7.076138 -35.569090 0.000000 0.000000 0.000000 -7.125000 0.000000 0.000000 -34.211348 62.352323 15.382468 0.000000 0.000000 0.000000 -66.938547 3.976320 -41.350963 -15.942661 -25.442821 -3.621305 -4.862468 -42.953181 3.373828 0.000000 0.000000 0.000000 7.125000 0.000000 0.000000 17.527663 32.975545 5.381873
7.915908 15.725540 14.785473 229.643092 -75.274870 -222.289805 0.000000 0.000000 0.000000 1.711752 5.707223 -48.666147 15.378893 19.479491 76.374916 0.842825 -21.157738 -20.819529 0.277767 -3.380579 -9.341079 0.000000 0.000000 0.000000 5.175399 -0.950133 -19.057425 -4.513185 -12.810547 38.668430 -0.975486 1.327171 -18.271266 -3.847867 11.954591 -35.572347 2.736330 -0.795801 21.096156 4.266873 -0.705869 5.728649 3.239390 -0.594363 -5.514125 -16.086582 -19.970665 2.545312 25.465619 -28.286869 -1.631840 7.823588 -14.282852 5.197896 0.000000 0.000000 0.000000 16.343253 11.220956 11.224391 17.603570 -27.646404 4.363843 4.310399 6.564614 -35.883697 0.000000 0.000000 0.000000 -7.125000 0.000000 0.000000 -35.315596 62.417705 15.998558 0.000000 0.000000 0.000000 -66.713096 3.977636 -41.120041 -15.907869 -25.395473 -3.606435 -4.167576 -42.276204 3.032649 0.000000 0.000000 0.000000 7.125000 0.000000 0.000000 17.998823 32.621158 5.707763
7.879863 15.761477 14.831924 230.322117 -75.654461 -222.871068 0.000000 0.000000 0.000000 1.231584 5.269306 -48.251834 15.159859 19.428683 75.717730 0.884922 -21.322275 -21.166937 0.225659 -3.057446 -8.438766 0.000000 0.000000 0.000000 4.989819 -1.153275 -18.323603 -4.268170 -12.508421 37.555847 -0.926344 0.702714 -17.970287 -3.774543 11.853172 -35.215728 2.552774 -0.920084 20.851614 4.256472 -0.901108 5.652523 3.375693 -0.681750 -5.461504 -16.178559 -20.005209 2.491010 25.391417 -28.370625 -1.402721 7.780937 -14.306072 5.292201 0.000000 0.000000 0.000000 15.944260 11.317324 10.245074 17.735277 -27.816770 4.424982 3.594010 6.098063 -36.121692 0.000000 0.000000 0.000000 -7.125000 0.000000 0.000000 -36.307972 62.424923 16.517148 0.000000 0.000000 0.000000 -66.516147 3.930863 -41.386569 -15.809098 -25.261077 -3.564132 -2.842314 -41.192605 2.832559 0.000000 0.000000 0.000000 7.125000 0.000000 0.000000 18.988319 32.375946 6.166467
7.844521 15.803361 14.880485 230.863032 -75.948052 -223.314861 0.000000 0.000000 0.000000 0.752247 4.969307 -47.838863 14.933983 19.372568 75.037269 0.946905 -21.252536 -21.521634 0.230650 -3.091034 -8.532381 0.000000 0.000000 0.000000 4.878601 -1.362492 -17.608004 -4.027119 -12.193314 36.423636 -0.844465 -0.230060 -17.458307 -4.108197 12.297032 -36.799556 2.421457 -0.994814 20.572928 4.204000 -1.032088 5.639506 3.415958 -0.740428 -5.324994 -16.106595 -20.084255 2.268034 25.293620 -28.492297 -1.172258 7.687390 -14.338244 5.394179 0.000000 0.000000 0.000000 15.703006 11.296618 8.942157 17.861805 -27.979719 4.484266 3.330634 5.687589 -36.265824 0.000000 0.000000 0.000000 -7.125000 0.000000 0.000000 -36.740300 62.471528 16.783559 0.000000 0.000000 0.000000 -66.247713 3.766633 -42.149717 -15.697475 -25.108649 -3.516650 -1.747940 -40.478961 3.051083 0.000000 0.000000 0.000000 7.125000 0.000000 0.000000 19.879412 32.534578 6.406304
7.813442 15.847933 14.926243 231.752210 -76.073118 -224.031659 0.000000 0.000000 0.000000 0.478528 4.799821 -47.582516 14.715480 19.316185 74.377544 0.963118 -21.233520 -21.614193 0.213256 -2.967846 -8.189725 0.000000 0.000000 0.000000 4.957526 -1.333415 -16.948618 -3.791136 -11.873523 35.290848 -0.749838 -1.191287 -16.831710 -4.356725 12.618636 -37.960092 2.379760 -1.066242 20.320007 4.234619 -1.130699 5.567396 3.489437 -0.783708 -5.266085 -16.090844 -20.119721 2.181638 25.208380 -28.548962 -1.042628 7.636003 -14.352830 5.440980 0.000000 0.000000 0.000000 15.358656 11.384269 7.639087 18.047081 -28.216928 4.571735 3.182988 5.341161 -36.502454 0.000000 0.000000 0.000000 -7.125000 0.000000 0.000000 -37.172051 62.620039 17.141048 0.000000 0.000000 0.000000 -66.034148 3.470815 -43.065649 -15.579402 -24.946930 -3.466711 -1.352857 -40.017320 3.221918 0.000000 0.000000 0.000000 7.125000 0.000000 0.000000 20.221539 32.678351 6.455421
